<svg xmlns="http://www.w3.org/2000/svg" width="50.5" height="102.5" viewBox="0 0 50.5 102.5">
  <g id="noun-global-2533163" transform="translate(-43.216 81.254)">
    <path id="패스_1" data-name="패스 1" d="M143.1,37.769c-.011-.011-.026-.013-.038-.023a24.941,24.941,0,0,0-36.14,0c-.012.01-.027.013-.037.023s-.026.042-.043.061a24.932,24.932,0,0,0,0,34.33c.017.019.024.043.043.061s.026.014.037.023a24.939,24.939,0,0,0,36.137,0c.012-.01.027-.014.039-.025s.026-.042.043-.061a24.933,24.933,0,0,0,0-34.33c-.018-.019-.025-.043-.043-.061Zm-.729,32.267a24.858,24.858,0,0,0-6.972-4.784A52.09,52.09,0,0,0,136.356,56h11.611a22.9,22.9,0,0,1-5.6,14.041ZM102.017,56h11.611a52.082,52.082,0,0,0,.957,9.256,24.858,24.858,0,0,0-6.972,4.784,22.891,22.891,0,0,1-5.6-14.04Zm5.6-16.041a24.859,24.859,0,0,0,6.972,4.784,52.093,52.093,0,0,0-.957,9.257H102.016a22.9,22.9,0,0,1,5.6-14.041Zm16.379,5.016a22.918,22.918,0,0,1-7.084-1.425c1.482-6.163,4.1-10.591,7.084-11.41Zm0,2v7.025h-8.365a50.61,50.61,0,0,1,.857-8.477,24.946,24.946,0,0,0,7.508,1.452Zm0,9.025V63.02a24.931,24.931,0,0,0-7.508,1.452,50.609,50.609,0,0,1-.857-8.477Zm0,9.025V77.855c-2.986-.819-5.6-5.247-7.084-11.41A22.918,22.918,0,0,1,123.992,65.02Zm2,0a22.918,22.918,0,0,1,7.084,1.425c-1.482,6.163-4.1,10.591-7.084,11.41Zm0-2V55.995h8.365a50.607,50.607,0,0,1-.857,8.477,24.945,24.945,0,0,0-7.508-1.452Zm0-9.025V46.97a24.931,24.931,0,0,0,7.508-1.452,50.6,50.6,0,0,1,.857,8.477Zm0-9.025V32.135c2.986.819,5.6,5.247,7.084,11.41A22.918,22.918,0,0,1,125.992,44.97Zm4.108-12.4A22.973,22.973,0,0,1,141,38.5a22.9,22.9,0,0,1-6.047,4.241c-1.1-4.4-2.791-7.943-4.85-10.168ZM115.033,42.742a22.9,22.9,0,0,1-6.047-4.241,22.973,22.973,0,0,1,10.9-5.926c-2.059,2.225-3.747,5.77-4.85,10.168Zm0,24.507c1.1,4.4,2.791,7.943,4.85,10.168a22.973,22.973,0,0,1-10.9-5.926,22.9,22.9,0,0,1,6.047-4.241Zm19.917,0A22.9,22.9,0,0,1,141,71.49a22.973,22.973,0,0,1-10.9,5.926c2.059-2.225,3.747-5.77,4.85-10.168Zm1.406-13.254a52.083,52.083,0,0,0-.957-9.256,24.858,24.858,0,0,0,6.972-4.784,22.893,22.893,0,0,1,5.6,14.04Z" transform="translate(-56.524 -59)" stroke="#000" stroke-width="0.5"/>
    <path id="패스_2" data-name="패스 2" d="M143.1,37.769c-.011-.011-.026-.013-.038-.023a24.941,24.941,0,0,0-36.14,0c-.012.01-.027.013-.037.023s-.026.042-.043.061a24.932,24.932,0,0,0,0,34.33c.017.019.024.043.043.061s.026.014.037.023a24.939,24.939,0,0,0,36.137,0c.012-.01.027-.014.039-.025s.026-.042.043-.061a24.933,24.933,0,0,0,0-34.33c-.018-.019-.025-.043-.043-.061Zm-.729,32.267a24.858,24.858,0,0,0-6.972-4.784A52.09,52.09,0,0,0,136.356,56h11.611a22.9,22.9,0,0,1-5.6,14.041ZM102.017,56h11.611a52.082,52.082,0,0,0,.957,9.256,24.858,24.858,0,0,0-6.972,4.784,22.891,22.891,0,0,1-5.6-14.04Zm5.6-16.041a24.859,24.859,0,0,0,6.972,4.784,52.093,52.093,0,0,0-.957,9.257H102.016a22.9,22.9,0,0,1,5.6-14.041Zm16.379,5.016a22.918,22.918,0,0,1-7.084-1.425c1.482-6.163,4.1-10.591,7.084-11.41Zm0,2v7.025h-8.365a50.61,50.61,0,0,1,.857-8.477,24.946,24.946,0,0,0,7.508,1.452Zm0,9.025V63.02a24.931,24.931,0,0,0-7.508,1.452,50.609,50.609,0,0,1-.857-8.477Zm0,9.025V77.855c-2.986-.819-5.6-5.247-7.084-11.41A22.918,22.918,0,0,1,123.992,65.02Zm2,0a22.918,22.918,0,0,1,7.084,1.425c-1.482,6.163-4.1,10.591-7.084,11.41Zm0-2V55.995h8.365a50.607,50.607,0,0,1-.857,8.477,24.945,24.945,0,0,0-7.508-1.452Zm0-9.025V46.97a24.931,24.931,0,0,0,7.508-1.452,50.6,50.6,0,0,1,.857,8.477Zm0-9.025V32.135c2.986.819,5.6,5.247,7.084,11.41A22.918,22.918,0,0,1,125.992,44.97Zm4.108-12.4A22.973,22.973,0,0,1,141,38.5a22.9,22.9,0,0,1-6.047,4.241c-1.1-4.4-2.791-7.943-4.85-10.168ZM115.033,42.742a22.9,22.9,0,0,1-6.047-4.241,22.973,22.973,0,0,1,10.9-5.926c-2.059,2.225-3.747,5.77-4.85,10.168Zm0,24.507c1.1,4.4,2.791,7.943,4.85,10.168a22.973,22.973,0,0,1-10.9-5.926,22.9,22.9,0,0,1,6.047-4.241Zm19.917,0A22.9,22.9,0,0,1,141,71.49a22.973,22.973,0,0,1-10.9,5.926c2.059-2.225,3.747-5.77,4.85-10.168Zm1.406-13.254a52.083,52.083,0,0,0-.957-9.256,24.858,24.858,0,0,0,6.972-4.784,22.893,22.893,0,0,1,5.6,14.04Z" transform="translate(-56.524 -111)" fill="#fff" stroke="#fff" stroke-width="0.5"/>
  </g>
</svg>
