<svg version="1.1" id="Bold" xmlns="http://www.w3.org/2000/svg" x="0" y="0" viewBox="0 0 512 512" xml:space="preserve"><style>.st0{fill:#435b53;}</style><path class="st0" d="M201.9 198.5l-14.8 41.6h29.5l-14.7-41.6z"/><path class="st0" d="M256 21.3C114.6 21.3 0 111.1 0 221.8c0 71.6 47.9 134.4 120 169.9-27.7 94.9-28.4 95.4-23.7 98.1 5.9 3.4 13.5-.1 114.3-70.6 14.8 2.1 30 3.2 45.5 3.2 141.4 0 256-89.8 256-200.5S397.4 21.3 256 21.3zM129.2 277.8c0 7.7-6.6 14-14.8 14s-14.8-6.3-14.8-14v-87.2h-23c-8 0-14.5-6.4-14.5-14.4s6.5-14.4 14.5-14.4h75.6c8 0 14.5 6.4 14.5 14.4s-6.5 14.4-14.5 14.4h-23v87.2zM244 291.6c-15.4 0-12.5-12.1-19.6-25.5h-45c-7 13.3-4.3 25.5-19.6 25.5-14.8 0-17.4-9-12.9-22.8l35.3-92.4c2.5-7 10-14.3 19.7-14.5 9.6.2 17.2 7.4 19.7 14.5 23.2 72.3 56.5 115.3 22.4 115.2zm84-1.9h-47.4c-24.7 0-9.7-33.4-14.1-113.1 0-8.1 6.8-14.7 15.1-14.7s15.1 6.6 15.1 14.7v86.2H328c7.8 0 14.1 6 14.1 13.4s-6.3 13.5-14.1 13.5zm115.6-11.1c-.5 3.9-2.6 7.3-5.7 9.7-20.4 15.4-35.4-29.5-55.3-48.4l-5.1 5.1v32c0 8.1-6.6 14.7-14.8 14.7-8.1 0-14.8-6.6-14.8-14.7V176.6c0-8.1 6.6-14.7 14.8-14.7s14.8 6.6 14.8 14.7v31.5c27.2-20.4 42.3-57 59.6-39.9 16.9 16.8-18.1 31.4-32.6 51.7 34.1 47.2 40.6 48.4 39.1 58.7z"/></svg>