<svg xmlns="http://www.w3.org/2000/svg" width="21" height="15" viewBox="0 0 21 15">
  <path id="youtube-icon" d="M19.6,3.2a2.521,2.521,0,0,0-1.8-1.8C16.3,1,10,1,10,1s-6.3,0-7.8.4A2.368,2.368,0,0,0,.4,3.2,26.679,26.679,0,0,0,0,8a26.679,26.679,0,0,0,.4,4.8,2.521,2.521,0,0,0,1.8,1.8c1.5.4,7.8.4,7.8.4s6.3,0,7.8-.4a2.521,2.521,0,0,0,1.8-1.8A26.679,26.679,0,0,0,20,8,26.679,26.679,0,0,0,19.6,3.2ZM8,11V5l5.2,3Z" transform="translate(0.5 -0.5)" fill="none" stroke="#435b53" stroke-width="1"/>
  <path id="다각형_1" data-name="다각형 1" d="M2.5,0,5,4.578H0Z" transform="translate(13.078 5) rotate(90)" fill="#435b53"/>
</svg>
